<mxfile host="app.diagrams.net" agent="Mozilla/5.0 (Windows NT 10.0; Win64; x64) AppleWebKit/537.36 (KHTML, like Gecko) Chrome/140.0.0.0 Safari/537.36 Edg/140.0.0.0" version="28.2.3">
  <diagram name="Page-1" id="rVa-lKMoowYFIGc6GgEA">
    <mxGraphModel dx="1194" dy="1339" grid="1" gridSize="10" guides="1" tooltips="1" connect="1" arrows="1" fold="1" page="1" pageScale="1" pageWidth="850" pageHeight="1100" math="0" shadow="0">
      <root>
        <mxCell id="0" />
        <mxCell id="1" parent="0" />
        <mxCell id="5o_uf78WDqlj0wV_964m-2" value="Enrollment System" style="swimlane;whiteSpace=wrap;html=1;" vertex="1" parent="1">
          <mxGeometry x="250" y="130" width="540" height="670" as="geometry" />
        </mxCell>
        <mxCell id="5o_uf78WDqlj0wV_964m-37" style="edgeStyle=classic;rounded=0;orthogonalLoop=1;jettySize=auto;html=1;exitX=0.5;exitY=1;exitDx=0;exitDy=0;entryX=0.5;entryY=0;entryDx=0;entryDy=0;dashed=1;" edge="1" parent="5o_uf78WDqlj0wV_964m-2" source="5o_uf78WDqlj0wV_964m-3" target="5o_uf78WDqlj0wV_964m-14">
          <mxGeometry relative="1" as="geometry">
            <Array as="points" />
          </mxGeometry>
        </mxCell>
        <mxCell id="5o_uf78WDqlj0wV_964m-44" value="includes" style="edgeLabel;html=1;align=center;verticalAlign=middle;resizable=0;points=[];" vertex="1" connectable="0" parent="5o_uf78WDqlj0wV_964m-37">
          <mxGeometry x="0.4553" y="3" relative="1" as="geometry">
            <mxPoint as="offset" />
          </mxGeometry>
        </mxCell>
        <mxCell id="5o_uf78WDqlj0wV_964m-3" value="UC1 Waitlisted Student" style="ellipse;whiteSpace=wrap;html=1;" vertex="1" parent="5o_uf78WDqlj0wV_964m-2">
          <mxGeometry x="210" y="40" width="120" height="80" as="geometry" />
        </mxCell>
        <mxCell id="5o_uf78WDqlj0wV_964m-9" value="UC3 Enroll in Course" style="ellipse;whiteSpace=wrap;html=1;" vertex="1" parent="5o_uf78WDqlj0wV_964m-2">
          <mxGeometry x="50" y="150" width="120" height="80" as="geometry" />
        </mxCell>
        <mxCell id="5o_uf78WDqlj0wV_964m-27" style="edgeStyle=classic;rounded=0;orthogonalLoop=1;jettySize=auto;html=1;exitX=1;exitY=0.5;exitDx=0;exitDy=0;entryX=0.5;entryY=1;entryDx=0;entryDy=0;dashed=1;" edge="1" parent="5o_uf78WDqlj0wV_964m-2" source="5o_uf78WDqlj0wV_964m-15" target="5o_uf78WDqlj0wV_964m-14">
          <mxGeometry relative="1" as="geometry">
            <mxPoint x="190" y="600" as="sourcePoint" />
            <mxPoint x="240" y="540" as="targetPoint" />
          </mxGeometry>
        </mxCell>
        <mxCell id="5o_uf78WDqlj0wV_964m-49" value="includes" style="edgeLabel;html=1;align=center;verticalAlign=middle;resizable=0;points=[];" vertex="1" connectable="0" parent="5o_uf78WDqlj0wV_964m-27">
          <mxGeometry x="-0.78" y="4" relative="1" as="geometry">
            <mxPoint as="offset" />
          </mxGeometry>
        </mxCell>
        <mxCell id="5o_uf78WDqlj0wV_964m-15" value="UC9 Search Courses" style="ellipse;whiteSpace=wrap;html=1;" vertex="1" parent="5o_uf78WDqlj0wV_964m-2">
          <mxGeometry x="50" y="510" width="120" height="80" as="geometry" />
        </mxCell>
        <mxCell id="5o_uf78WDqlj0wV_964m-33" style="edgeStyle=orthogonalEdgeStyle;rounded=0;orthogonalLoop=1;jettySize=auto;html=1;exitX=1;exitY=0.5;exitDx=0;exitDy=0;dashed=1;" edge="1" parent="5o_uf78WDqlj0wV_964m-2" source="5o_uf78WDqlj0wV_964m-7">
          <mxGeometry relative="1" as="geometry">
            <mxPoint x="210" y="310" as="targetPoint" />
            <Array as="points">
              <mxPoint x="180" y="310" />
              <mxPoint x="180" y="310" />
            </Array>
          </mxGeometry>
        </mxCell>
        <mxCell id="5o_uf78WDqlj0wV_964m-46" value="includes" style="edgeLabel;html=1;align=center;verticalAlign=middle;resizable=0;points=[];" vertex="1" connectable="0" parent="5o_uf78WDqlj0wV_964m-33">
          <mxGeometry x="-0.0667" relative="1" as="geometry">
            <mxPoint as="offset" />
          </mxGeometry>
        </mxCell>
        <mxCell id="5o_uf78WDqlj0wV_964m-7" value="UC2 Login" style="ellipse;whiteSpace=wrap;html=1;" vertex="1" parent="5o_uf78WDqlj0wV_964m-2">
          <mxGeometry x="30" y="270" width="120" height="80" as="geometry" />
        </mxCell>
        <mxCell id="5o_uf78WDqlj0wV_964m-35" style="edgeStyle=classic;rounded=0;orthogonalLoop=1;jettySize=auto;html=1;exitX=0;exitY=0.5;exitDx=0;exitDy=0;dashed=1;entryX=0.667;entryY=0;entryDx=0;entryDy=0;entryPerimeter=0;" edge="1" parent="5o_uf78WDqlj0wV_964m-2" source="5o_uf78WDqlj0wV_964m-12" target="5o_uf78WDqlj0wV_964m-14">
          <mxGeometry relative="1" as="geometry">
            <mxPoint x="300" y="140" as="targetPoint" />
          </mxGeometry>
        </mxCell>
        <mxCell id="5o_uf78WDqlj0wV_964m-45" value="includes" style="edgeLabel;html=1;align=center;verticalAlign=middle;resizable=0;points=[];" vertex="1" connectable="0" parent="5o_uf78WDqlj0wV_964m-35">
          <mxGeometry x="-0.3067" relative="1" as="geometry">
            <mxPoint as="offset" />
          </mxGeometry>
        </mxCell>
        <mxCell id="5o_uf78WDqlj0wV_964m-12" value="UC6 Browse Courses" style="ellipse;whiteSpace=wrap;html=1;" vertex="1" parent="5o_uf78WDqlj0wV_964m-2">
          <mxGeometry x="360" y="150" width="120" height="80" as="geometry" />
        </mxCell>
        <mxCell id="5o_uf78WDqlj0wV_964m-10" value="UC4 Drop Course" style="ellipse;whiteSpace=wrap;html=1;" vertex="1" parent="5o_uf78WDqlj0wV_964m-2">
          <mxGeometry x="90" y="400" width="120" height="80" as="geometry" />
        </mxCell>
        <mxCell id="5o_uf78WDqlj0wV_964m-13" value="UC7 Generate Reports" style="ellipse;whiteSpace=wrap;html=1;" vertex="1" parent="5o_uf78WDqlj0wV_964m-2">
          <mxGeometry x="380" y="390" width="120" height="80" as="geometry" />
        </mxCell>
        <mxCell id="5o_uf78WDqlj0wV_964m-8" value="UC10 View Student Schedule" style="ellipse;whiteSpace=wrap;html=1;" vertex="1" parent="5o_uf78WDqlj0wV_964m-2">
          <mxGeometry x="360" y="510" width="120" height="80" as="geometry" />
        </mxCell>
        <mxCell id="5o_uf78WDqlj0wV_964m-14" value="UC8 Client-Server Communication" style="ellipse;whiteSpace=wrap;html=1;" vertex="1" parent="5o_uf78WDqlj0wV_964m-2">
          <mxGeometry x="210" y="270" width="120" height="80" as="geometry" />
        </mxCell>
        <mxCell id="5o_uf78WDqlj0wV_964m-30" style="edgeStyle=classic;rounded=0;orthogonalLoop=1;jettySize=auto;html=1;exitX=0.067;exitY=0.263;exitDx=0;exitDy=0;entryX=1;entryY=1;entryDx=0;entryDy=0;dashed=1;exitPerimeter=0;" edge="1" parent="5o_uf78WDqlj0wV_964m-2" source="5o_uf78WDqlj0wV_964m-13" target="5o_uf78WDqlj0wV_964m-14">
          <mxGeometry relative="1" as="geometry" />
        </mxCell>
        <mxCell id="5o_uf78WDqlj0wV_964m-48" value="includes" style="edgeLabel;html=1;align=center;verticalAlign=middle;resizable=0;points=[];" vertex="1" connectable="0" parent="5o_uf78WDqlj0wV_964m-30">
          <mxGeometry x="-0.6162" y="2" relative="1" as="geometry">
            <mxPoint as="offset" />
          </mxGeometry>
        </mxCell>
        <mxCell id="5o_uf78WDqlj0wV_964m-31" style="edgeStyle=classic;rounded=0;orthogonalLoop=1;jettySize=auto;html=1;exitX=0;exitY=0.5;exitDx=0;exitDy=0;entryX=0.583;entryY=1.013;entryDx=0;entryDy=0;entryPerimeter=0;dashed=1;" edge="1" parent="5o_uf78WDqlj0wV_964m-2" source="5o_uf78WDqlj0wV_964m-8" target="5o_uf78WDqlj0wV_964m-14">
          <mxGeometry relative="1" as="geometry" />
        </mxCell>
        <mxCell id="5o_uf78WDqlj0wV_964m-50" value="includes" style="edgeLabel;html=1;align=center;verticalAlign=middle;resizable=0;points=[];" vertex="1" connectable="0" parent="5o_uf78WDqlj0wV_964m-31">
          <mxGeometry x="-0.6559" y="2" relative="1" as="geometry">
            <mxPoint as="offset" />
          </mxGeometry>
        </mxCell>
        <mxCell id="5o_uf78WDqlj0wV_964m-32" style="edgeStyle=classic;rounded=0;orthogonalLoop=1;jettySize=auto;html=1;exitX=1;exitY=0.5;exitDx=0;exitDy=0;entryX=0.225;entryY=0.938;entryDx=0;entryDy=0;entryPerimeter=0;dashed=1;" edge="1" parent="5o_uf78WDqlj0wV_964m-2" source="5o_uf78WDqlj0wV_964m-10" target="5o_uf78WDqlj0wV_964m-14">
          <mxGeometry relative="1" as="geometry" />
        </mxCell>
        <mxCell id="5o_uf78WDqlj0wV_964m-51" value="includes" style="edgeLabel;html=1;align=center;verticalAlign=middle;resizable=0;points=[];" vertex="1" connectable="0" parent="5o_uf78WDqlj0wV_964m-32">
          <mxGeometry x="-0.4211" y="-4" relative="1" as="geometry">
            <mxPoint as="offset" />
          </mxGeometry>
        </mxCell>
        <mxCell id="5o_uf78WDqlj0wV_964m-36" style="edgeStyle=classic;rounded=0;orthogonalLoop=1;jettySize=auto;html=1;exitX=1;exitY=0.5;exitDx=0;exitDy=0;entryX=0.2;entryY=0.075;entryDx=0;entryDy=0;dashed=1;entryPerimeter=0;" edge="1" parent="5o_uf78WDqlj0wV_964m-2" source="5o_uf78WDqlj0wV_964m-9" target="5o_uf78WDqlj0wV_964m-14">
          <mxGeometry relative="1" as="geometry">
            <Array as="points">
              <mxPoint x="190" y="190" />
            </Array>
          </mxGeometry>
        </mxCell>
        <mxCell id="5o_uf78WDqlj0wV_964m-40" value="&lt;font style=&quot;font-size: 11px;&quot;&gt;includes&lt;/font&gt;" style="edgeLabel;html=1;align=center;verticalAlign=middle;resizable=0;points=[];rotation=0;" vertex="1" connectable="0" parent="5o_uf78WDqlj0wV_964m-36">
          <mxGeometry x="-0.4545" relative="1" as="geometry">
            <mxPoint x="1" as="offset" />
          </mxGeometry>
        </mxCell>
        <mxCell id="5o_uf78WDqlj0wV_964m-11" value="UC5 Manage Courses" style="ellipse;whiteSpace=wrap;html=1;" vertex="1" parent="5o_uf78WDqlj0wV_964m-2">
          <mxGeometry x="410" y="270" width="120" height="80" as="geometry" />
        </mxCell>
        <mxCell id="5o_uf78WDqlj0wV_964m-41" style="edgeStyle=orthogonalEdgeStyle;rounded=0;orthogonalLoop=1;jettySize=auto;html=1;exitX=0;exitY=0.5;exitDx=0;exitDy=0;entryX=1;entryY=0.5;entryDx=0;entryDy=0;dashed=1;" edge="1" parent="5o_uf78WDqlj0wV_964m-2" source="5o_uf78WDqlj0wV_964m-11" target="5o_uf78WDqlj0wV_964m-14">
          <mxGeometry relative="1" as="geometry" />
        </mxCell>
        <mxCell id="5o_uf78WDqlj0wV_964m-47" value="includes" style="edgeLabel;html=1;align=center;verticalAlign=middle;resizable=0;points=[];" vertex="1" connectable="0" parent="5o_uf78WDqlj0wV_964m-41">
          <mxGeometry x="-0.4571" y="2" relative="1" as="geometry">
            <mxPoint x="-8" y="-2" as="offset" />
          </mxGeometry>
        </mxCell>
        <mxCell id="5o_uf78WDqlj0wV_964m-87" style="edgeStyle=classic;rounded=0;orthogonalLoop=1;jettySize=auto;html=1;exitX=1;exitY=0;exitDx=0;exitDy=0;entryX=0.092;entryY=0.813;entryDx=0;entryDy=0;entryPerimeter=0;dashed=1;" edge="1" parent="5o_uf78WDqlj0wV_964m-2" source="5o_uf78WDqlj0wV_964m-9" target="5o_uf78WDqlj0wV_964m-3">
          <mxGeometry relative="1" as="geometry" />
        </mxCell>
        <mxCell id="5o_uf78WDqlj0wV_964m-88" value="extends" style="edgeLabel;html=1;align=center;verticalAlign=middle;resizable=0;points=[];" vertex="1" connectable="0" parent="5o_uf78WDqlj0wV_964m-87">
          <mxGeometry x="-0.5828" y="1" relative="1" as="geometry">
            <mxPoint as="offset" />
          </mxGeometry>
        </mxCell>
        <mxCell id="5o_uf78WDqlj0wV_964m-90" style="edgeStyle=classic;rounded=0;orthogonalLoop=1;jettySize=auto;html=1;exitX=0.617;exitY=0.025;exitDx=0;exitDy=0;entryX=0.283;entryY=0.975;entryDx=0;entryDy=0;entryPerimeter=0;dashed=1;exitPerimeter=0;" edge="1" parent="5o_uf78WDqlj0wV_964m-2" source="5o_uf78WDqlj0wV_964m-10" target="5o_uf78WDqlj0wV_964m-3">
          <mxGeometry relative="1" as="geometry">
            <mxPoint x="190" y="177" as="sourcePoint" />
            <mxPoint x="259" y="120" as="targetPoint" />
            <Array as="points">
              <mxPoint x="210" y="270" />
            </Array>
          </mxGeometry>
        </mxCell>
        <mxCell id="5o_uf78WDqlj0wV_964m-91" value="extends" style="edgeLabel;html=1;align=center;verticalAlign=middle;resizable=0;points=[];" vertex="1" connectable="0" parent="5o_uf78WDqlj0wV_964m-90">
          <mxGeometry x="-0.5828" y="1" relative="1" as="geometry">
            <mxPoint as="offset" />
          </mxGeometry>
        </mxCell>
        <mxCell id="5o_uf78WDqlj0wV_964m-20" style="edgeStyle=classic;rounded=0;orthogonalLoop=1;jettySize=auto;html=1;entryX=0.5;entryY=1;entryDx=0;entryDy=0;exitX=0.25;exitY=0.1;exitDx=0;exitDy=0;exitPerimeter=0;" edge="1" parent="1" source="5o_uf78WDqlj0wV_964m-4" target="5o_uf78WDqlj0wV_964m-14">
          <mxGeometry relative="1" as="geometry">
            <mxPoint x="196" y="262" as="sourcePoint" />
            <Array as="points" />
          </mxGeometry>
        </mxCell>
        <mxCell id="5o_uf78WDqlj0wV_964m-21" value="Send/Recieve" style="edgeLabel;html=1;align=center;verticalAlign=middle;resizable=0;points=[];" vertex="1" connectable="0" parent="5o_uf78WDqlj0wV_964m-20">
          <mxGeometry x="0.0889" y="-4" relative="1" as="geometry">
            <mxPoint x="-7" y="9" as="offset" />
          </mxGeometry>
        </mxCell>
        <mxCell id="5o_uf78WDqlj0wV_964m-4" value="Client Application" style="shape=umlActor;verticalLabelPosition=bottom;verticalAlign=top;html=1;outlineConnect=0;" vertex="1" parent="1">
          <mxGeometry x="520" y="850" width="30" height="60" as="geometry" />
        </mxCell>
        <mxCell id="5o_uf78WDqlj0wV_964m-5" value="Administrator" style="shape=umlActor;verticalLabelPosition=bottom;verticalAlign=top;html=1;outlineConnect=0;" vertex="1" parent="1">
          <mxGeometry x="910" y="420" width="30" height="60" as="geometry" />
        </mxCell>
        <mxCell id="5o_uf78WDqlj0wV_964m-54" style="edgeStyle=classic;rounded=0;orthogonalLoop=1;jettySize=auto;html=1;exitX=0.5;exitY=0.5;exitDx=0;exitDy=0;exitPerimeter=0;entryX=0;entryY=1;entryDx=0;entryDy=0;" edge="1" parent="1" source="5o_uf78WDqlj0wV_964m-6" target="5o_uf78WDqlj0wV_964m-10">
          <mxGeometry relative="1" as="geometry">
            <Array as="points" />
          </mxGeometry>
        </mxCell>
        <mxCell id="5o_uf78WDqlj0wV_964m-55" value="Drop" style="edgeLabel;html=1;align=center;verticalAlign=middle;resizable=0;points=[];" vertex="1" connectable="0" parent="5o_uf78WDqlj0wV_964m-54">
          <mxGeometry x="-0.0677" relative="1" as="geometry">
            <mxPoint as="offset" />
          </mxGeometry>
        </mxCell>
        <mxCell id="5o_uf78WDqlj0wV_964m-56" style="edgeStyle=classic;rounded=0;orthogonalLoop=1;jettySize=auto;html=1;exitX=0.5;exitY=0.5;exitDx=0;exitDy=0;exitPerimeter=0;entryX=0;entryY=0.5;entryDx=0;entryDy=0;" edge="1" parent="1" source="5o_uf78WDqlj0wV_964m-6" target="5o_uf78WDqlj0wV_964m-9">
          <mxGeometry relative="1" as="geometry">
            <Array as="points" />
          </mxGeometry>
        </mxCell>
        <mxCell id="5o_uf78WDqlj0wV_964m-57" value="enroll" style="edgeLabel;html=1;align=center;verticalAlign=middle;resizable=0;points=[];" vertex="1" connectable="0" parent="5o_uf78WDqlj0wV_964m-56">
          <mxGeometry x="-0.5812" y="2" relative="1" as="geometry">
            <mxPoint as="offset" />
          </mxGeometry>
        </mxCell>
        <mxCell id="5o_uf78WDqlj0wV_964m-61" style="edgeStyle=orthogonalEdgeStyle;rounded=0;orthogonalLoop=1;jettySize=auto;html=1;exitX=0.5;exitY=0;exitDx=0;exitDy=0;exitPerimeter=0;entryX=0;entryY=0.5;entryDx=0;entryDy=0;" edge="1" parent="1" source="5o_uf78WDqlj0wV_964m-6" target="5o_uf78WDqlj0wV_964m-3">
          <mxGeometry relative="1" as="geometry" />
        </mxCell>
        <mxCell id="5o_uf78WDqlj0wV_964m-62" value="receive notice" style="edgeLabel;html=1;align=center;verticalAlign=middle;resizable=0;points=[];" vertex="1" connectable="0" parent="5o_uf78WDqlj0wV_964m-61">
          <mxGeometry x="0.12" relative="1" as="geometry">
            <mxPoint as="offset" />
          </mxGeometry>
        </mxCell>
        <mxCell id="5o_uf78WDqlj0wV_964m-63" style="edgeStyle=classic;rounded=0;orthogonalLoop=1;jettySize=auto;html=1;entryX=0;entryY=0.5;entryDx=0;entryDy=0;" edge="1" parent="1" target="5o_uf78WDqlj0wV_964m-15">
          <mxGeometry relative="1" as="geometry">
            <mxPoint x="120" y="540" as="sourcePoint" />
          </mxGeometry>
        </mxCell>
        <mxCell id="5o_uf78WDqlj0wV_964m-64" value="search" style="edgeLabel;html=1;align=center;verticalAlign=middle;resizable=0;points=[];" vertex="1" connectable="0" parent="5o_uf78WDqlj0wV_964m-63">
          <mxGeometry x="-0.1931" y="1" relative="1" as="geometry">
            <mxPoint y="4" as="offset" />
          </mxGeometry>
        </mxCell>
        <mxCell id="5o_uf78WDqlj0wV_964m-72" style="edgeStyle=classic;rounded=0;orthogonalLoop=1;jettySize=auto;html=1;exitX=0.5;exitY=0;exitDx=0;exitDy=0;exitPerimeter=0;entryX=0;entryY=0;entryDx=0;entryDy=0;" edge="1" parent="1" source="5o_uf78WDqlj0wV_964m-6" target="5o_uf78WDqlj0wV_964m-12">
          <mxGeometry relative="1" as="geometry">
            <Array as="points">
              <mxPoint x="290" y="250" />
            </Array>
          </mxGeometry>
        </mxCell>
        <mxCell id="5o_uf78WDqlj0wV_964m-73" value="browse" style="edgeLabel;html=1;align=center;verticalAlign=middle;resizable=0;points=[];" vertex="1" connectable="0" parent="5o_uf78WDqlj0wV_964m-72">
          <mxGeometry x="0.0931" y="-2" relative="1" as="geometry">
            <mxPoint as="offset" />
          </mxGeometry>
        </mxCell>
        <mxCell id="5o_uf78WDqlj0wV_964m-6" value="Student" style="shape=umlActor;verticalLabelPosition=bottom;verticalAlign=top;html=1;outlineConnect=0;" vertex="1" parent="1">
          <mxGeometry x="80" y="470" width="30" height="60" as="geometry" />
        </mxCell>
        <mxCell id="5o_uf78WDqlj0wV_964m-66" style="edgeStyle=classic;rounded=0;orthogonalLoop=1;jettySize=auto;html=1;entryX=0;entryY=1;entryDx=0;entryDy=0;" edge="1" parent="1" target="5o_uf78WDqlj0wV_964m-8">
          <mxGeometry relative="1" as="geometry">
            <mxPoint x="98" y="560" as="sourcePoint" />
            <mxPoint x="410" y="760" as="targetPoint" />
            <Array as="points">
              <mxPoint x="300" y="780" />
            </Array>
          </mxGeometry>
        </mxCell>
        <mxCell id="5o_uf78WDqlj0wV_964m-67" value="view schedule" style="edgeLabel;html=1;align=center;verticalAlign=middle;resizable=0;points=[];" vertex="1" connectable="0" parent="5o_uf78WDqlj0wV_964m-66">
          <mxGeometry x="-0.1931" y="1" relative="1" as="geometry">
            <mxPoint y="4" as="offset" />
          </mxGeometry>
        </mxCell>
        <mxCell id="5o_uf78WDqlj0wV_964m-70" style="edgeStyle=classic;rounded=0;orthogonalLoop=1;jettySize=auto;html=1;entryX=0;entryY=0.5;entryDx=0;entryDy=0;" edge="1" parent="1" target="5o_uf78WDqlj0wV_964m-7">
          <mxGeometry relative="1" as="geometry">
            <mxPoint x="120" y="500" as="sourcePoint" />
            <mxPoint x="395" y="470" as="targetPoint" />
            <Array as="points" />
          </mxGeometry>
        </mxCell>
        <mxCell id="5o_uf78WDqlj0wV_964m-71" value="authenticate" style="edgeLabel;html=1;align=center;verticalAlign=middle;resizable=0;points=[];" vertex="1" connectable="0" parent="5o_uf78WDqlj0wV_964m-70">
          <mxGeometry x="-0.5812" y="2" relative="1" as="geometry">
            <mxPoint x="27" y="-5" as="offset" />
          </mxGeometry>
        </mxCell>
        <mxCell id="5o_uf78WDqlj0wV_964m-77" style="edgeStyle=classic;rounded=0;orthogonalLoop=1;jettySize=auto;html=1;entryX=1;entryY=0.5;entryDx=0;entryDy=0;" edge="1" parent="1" target="5o_uf78WDqlj0wV_964m-12">
          <mxGeometry relative="1" as="geometry">
            <mxPoint x="900" y="420" as="sourcePoint" />
            <mxPoint x="773" y="352" as="targetPoint" />
            <Array as="points" />
          </mxGeometry>
        </mxCell>
        <mxCell id="5o_uf78WDqlj0wV_964m-78" value="browse" style="edgeLabel;html=1;align=center;verticalAlign=middle;resizable=0;points=[];" vertex="1" connectable="0" parent="5o_uf78WDqlj0wV_964m-77">
          <mxGeometry x="0.0931" y="-2" relative="1" as="geometry">
            <mxPoint as="offset" />
          </mxGeometry>
        </mxCell>
        <mxCell id="5o_uf78WDqlj0wV_964m-79" style="edgeStyle=classic;rounded=0;orthogonalLoop=1;jettySize=auto;html=1;entryX=0.975;entryY=0.688;entryDx=0;entryDy=0;entryPerimeter=0;" edge="1" parent="1" target="5o_uf78WDqlj0wV_964m-15">
          <mxGeometry relative="1" as="geometry">
            <mxPoint x="890" y="510" as="sourcePoint" />
            <mxPoint x="430" y="780" as="targetPoint" />
            <Array as="points">
              <mxPoint x="760" y="760" />
            </Array>
          </mxGeometry>
        </mxCell>
        <mxCell id="5o_uf78WDqlj0wV_964m-80" value="search" style="edgeLabel;html=1;align=center;verticalAlign=middle;resizable=0;points=[];" vertex="1" connectable="0" parent="5o_uf78WDqlj0wV_964m-79">
          <mxGeometry x="-0.1931" y="1" relative="1" as="geometry">
            <mxPoint y="4" as="offset" />
          </mxGeometry>
        </mxCell>
        <mxCell id="5o_uf78WDqlj0wV_964m-81" style="edgeStyle=classic;rounded=0;orthogonalLoop=1;jettySize=auto;html=1;" edge="1" parent="1" target="5o_uf78WDqlj0wV_964m-7">
          <mxGeometry relative="1" as="geometry">
            <mxPoint x="920" y="410" as="sourcePoint" />
            <mxPoint x="410" y="450" as="targetPoint" />
            <Array as="points">
              <mxPoint x="910" y="80" />
              <mxPoint x="120" y="80" />
              <mxPoint x="120" y="270" />
            </Array>
          </mxGeometry>
        </mxCell>
        <mxCell id="5o_uf78WDqlj0wV_964m-82" value="authenticate" style="edgeLabel;html=1;align=center;verticalAlign=middle;resizable=0;points=[];" vertex="1" connectable="0" parent="5o_uf78WDqlj0wV_964m-81">
          <mxGeometry x="-0.5812" y="2" relative="1" as="geometry">
            <mxPoint x="-408" y="-8" as="offset" />
          </mxGeometry>
        </mxCell>
        <mxCell id="5o_uf78WDqlj0wV_964m-83" style="edgeStyle=classic;rounded=0;orthogonalLoop=1;jettySize=auto;html=1;entryX=0.992;entryY=0.425;entryDx=0;entryDy=0;entryPerimeter=0;" edge="1" parent="1" target="5o_uf78WDqlj0wV_964m-13">
          <mxGeometry relative="1" as="geometry">
            <mxPoint x="880" y="480" as="sourcePoint" />
            <mxPoint x="830" y="775" as="targetPoint" />
            <Array as="points" />
          </mxGeometry>
        </mxCell>
        <mxCell id="5o_uf78WDqlj0wV_964m-84" value="run reports" style="edgeLabel;html=1;align=center;verticalAlign=middle;resizable=0;points=[];" vertex="1" connectable="0" parent="5o_uf78WDqlj0wV_964m-83">
          <mxGeometry x="-0.1931" y="1" relative="1" as="geometry">
            <mxPoint x="-28" y="21" as="offset" />
          </mxGeometry>
        </mxCell>
        <mxCell id="5o_uf78WDqlj0wV_964m-85" style="edgeStyle=classic;rounded=0;orthogonalLoop=1;jettySize=auto;html=1;entryX=1;entryY=0.5;entryDx=0;entryDy=0;" edge="1" parent="1" target="5o_uf78WDqlj0wV_964m-11">
          <mxGeometry relative="1" as="geometry">
            <mxPoint x="900" y="450" as="sourcePoint" />
            <mxPoint x="850" y="574" as="targetPoint" />
            <Array as="points" />
          </mxGeometry>
        </mxCell>
        <mxCell id="5o_uf78WDqlj0wV_964m-86" value="manage catalog" style="edgeLabel;html=1;align=center;verticalAlign=middle;resizable=0;points=[];" vertex="1" connectable="0" parent="5o_uf78WDqlj0wV_964m-85">
          <mxGeometry x="-0.1931" y="1" relative="1" as="geometry">
            <mxPoint x="-9" y="-7" as="offset" />
          </mxGeometry>
        </mxCell>
      </root>
    </mxGraphModel>
  </diagram>
</mxfile>
